# xmcd
#
# Track frame offsets: 
#        150
#        17497
#        32407
#        48272
#        60302
#        81387
#        98072
#        115135
#        133602
#        148200
#        165940
#        188112
#        206382
#        217550
#        236235
#        250467
#
# Disc length: 3663 seconds
#
# Revision: 0
# Processed by: cddbd v1.4PL0 Copyright (c) Steve Scherf et al.
# Submitted via: ExactAudioCopy v0.90b4
#
DISCID=ce0e4d10
DTITLE=Brewer Phillips - Homebrew
DYEAR=1996
DGENRE=Blues
TTITLE0=You Don't Have to Go
TTITLE1=For You My Love
TTITLE2=Your So Cold
TTITLE3=Hen House Boogie
TTITLE4=Lunch Bucket Blues
TTITLE5=Don't You Want to Go Home With Me
TTITLE6=Blue Shadows
TTITLE7=My Baby Don't Love Me No More
TTITLE8=Laundromat Blues
TTITLE9=Looking for a Woman
TTITLE10=Cross Examination
TTITLE11=Homebrew
TTITLE12=Right Now
TTITLE13=Tore Down
TTITLE14=Let the Good Times Roll
TTITLE15=Do What You Will or May
EXTD=
EXTT0=
EXTT1=
EXTT2=
EXTT3=
EXTT4=
EXTT5=
EXTT6=
EXTT7=
EXTT8=
EXTT9=
EXTT10=
EXTT11=
EXTT12=
EXTT13=
EXTT14=
EXTT15=
PLAYORDER=
